<?xml version="1.0" encoding="UTF-8"?>
<svg version="1.1" xmlns="http://www.w3.org/2000/svg" width="1080" height="1080">
<path d="M0 0 C356.4 0 712.8 0 1080 0 C1080 356.4 1080 712.8 1080 1080 C723.6 1080 367.2 1080 0 1080 C0 723.6 0 367.2 0 0 Z " fill="#010100" transform="translate(0,0)"/>
<path d="M0 0 C3.92200567 1.67610691 7.8674205 3.28211896 11.82568359 4.87011719 C12.96188896 5.32630936 12.96188896 5.32630936 14.12104797 5.79171753 C15.70998301 6.42916827 17.2991124 7.06613476 18.88842773 7.70263672 C21.31837942 8.67657407 23.74683535 9.65418021 26.17529297 10.63183594 C27.72533229 11.25315647 29.27545946 11.8742579 30.82568359 12.49511719 C31.54866135 12.78677765 32.2716391 13.07843811 33.01652527 13.37893677 C36.19523955 14.64760772 39.29531711 15.77113493 42.62646484 16.54980469 C42.62646484 17.20980469 42.62646484 17.86980469 42.62646484 18.54980469 C43.33391846 18.6711377 44.04137207 18.7924707 44.77026367 18.91748047 C47.77599014 19.58290756 50.46095655 20.54142092 53.32568359 21.66699219 C54.44031982 22.10374268 55.55495605 22.54049316 56.70336914 22.99047852 C58.49061401 23.70046997 58.49061401 23.70046997 60.31396484 24.42480469 C60.92551422 24.66701752 61.5370636 24.90923035 62.16714478 25.15878296 C66.6601938 26.93947967 71.14532775 28.73935801 75.62646484 30.54980469 C76.24408691 30.79913757 76.86170898 31.04847046 77.49804688 31.30535889 C81.61241125 32.96948111 85.71539823 34.65969069 89.81396484 36.36230469 C90.86865967 36.79333496 91.92335449 37.22436523 93.01000977 37.66845703 C99.39552652 40.35336415 105.02572651 43.47555345 110.62646484 47.54980469 C111.22281738 47.96915283 111.81916992 48.38850098 112.43359375 48.82055664 C116.18105637 51.64602449 117.70886046 53.96178277 118.62646484 58.54980469 C119.84945266 69.35286369 112.94622261 77.49551918 106.62646484 85.54980469 C97.54584906 96.71393387 87.55726463 106.83274233 77.31396484 116.92480469 C75.03934266 119.17156644 72.76633304 121.4199045 70.49629211 123.67129517 C69.09891751 125.05665604 67.69888397 126.43934271 66.295578 127.81869507 C63.19066331 130.89199685 60.19755694 133.99842271 57.35620117 137.31787109 C53.09525074 142.25508871 48.46764726 146.82106883 43.84051514 151.41091919 C42.21413216 153.02433983 40.59106789 154.6410374 38.96875 156.25854492 C34.94183061 160.2722157 30.90943821 164.28037303 26.87719727 168.28869629 C23.45817865 171.68786192 20.04130085 175.08915336 16.62713623 178.49319458 C15.04125478 180.07267534 13.45235388 181.64907266 11.86328125 183.2253418 C7.07788293 187.98836846 2.41024991 192.76197005 -1.8515625 198.0065918 C-3.37353516 199.54980469 -3.37353516 199.54980469 -5.43847656 200.51293945 C-7.88848908 201.82573319 -8.24892728 203.05679947 -9.37353516 205.54980469 C-10.76159668 207.1918335 -10.76159668 207.1918335 -12.37939453 208.81445312 C-12.98763062 209.42899353 -13.5958667 210.04353394 -14.22253418 210.67669678 C-15.20993591 211.65802582 -15.20993591 211.65802582 -16.21728516 212.65917969 C-16.90101196 213.34481995 -17.58473877 214.03046021 -18.28918457 214.73687744 C-19.73932109 216.18837446 -21.19198443 217.63735077 -22.64697266 219.08398438 C-24.84456602 221.27097532 -27.03142298 223.46828362 -29.21728516 225.66699219 C-44.75714712 241.22370482 -44.75714712 241.22370482 -51.37353516 245.54980469 C-52.03353516 245.54980469 -52.69353516 245.54980469 -53.37353516 245.54980469 C-53.37353516 246.20980469 -53.37353516 246.86980469 -53.37353516 247.54980469 C-58.61351832 251.7962326 -64.6162044 254.62648491 -71.43603516 254.48730469 C-77.09981439 252.67971557 -80.67714316 248.97920384 -83.43212891 243.79199219 C-85.14161912 239.72042628 -86.32900733 235.48643987 -87.54150391 231.24511719 C-88.11062226 228.65702501 -88.11062226 228.65702501 -89.37353516 227.54980469 C-89.65918634 225.97251339 -89.89935508 224.38699962 -90.12353516 222.79980469 C-91.11075022 216.5826106 -92.48231522 210.48617768 -93.93603516 204.36230469 C-94.15807617 203.41709961 -94.38011719 202.47189453 -94.60888672 201.49804688 C-94.82125977 200.61407227 -95.03363281 199.73009766 -95.25244141 198.81933594 C-95.44394775 198.02116455 -95.6354541 197.22299316 -95.83276367 196.40063477 C-96.21239627 194.55080372 -96.21239627 194.55080372 -97.37353516 193.54980469 C-98.06291551 190.13287598 -98.67213133 186.71036929 -99.26806641 183.27636719 C-99.638543 179.60721124 -99.638543 179.60721124 -101.37353516 176.54980469 C-101.74214719 175.00842191 -102.05905824 173.45461949 -102.35400391 171.89746094 C-102.64162598 170.40859375 -102.64162598 170.40859375 -102.93505859 168.88964844 C-103.14163086 167.808125 -103.34820313 166.72660156 -103.56103516 165.61230469 C-105.42850955 156.05440882 -107.44095185 146.54082554 -109.62353516 137.04980469 C-109.88158936 135.91679932 -110.13964355 134.78379395 -110.40551758 133.61645508 C-110.64761963 132.57352295 -110.88972168 131.53059082 -111.13916016 130.45605469 C-111.3534668 129.53115234 -111.56777344 128.60625 -111.78857422 127.65332031 C-112.17937602 125.58002812 -112.17937602 125.58002812 -113.37353516 124.54980469 C-114.06291551 121.13287598 -114.67213133 117.71036929 -115.26806641 114.27636719 C-115.638543 110.60721124 -115.638543 110.60721124 -117.37353516 107.54980469 C-118.06393833 103.91768367 -118.67275821 100.28030894 -119.26806641 96.63183594 C-119.59868288 92.77215944 -119.59868288 92.77215944 -121.37353516 89.54980469 C-121.60597057 87.59070617 -121.83696407 85.63141385 -122.05712891 83.67089844 C-122.48041141 80.83333796 -123.43274707 78.25457044 -124.37353516 75.54980469 C-125.67696457 68.9379367 -125.63404545 62.39187509 -125.68603516 55.67480469 C-125.71503906 54.4334375 -125.74404297 53.19207031 -125.77392578 51.91308594 C-125.82441601 44.61919005 -125.3122948 39.74927252 -121.37353516 33.54980469 C-120.71353516 33.54980469 -120.05353516 33.54980469 -119.37353516 33.54980469 C-119.14102051 32.99204346 -118.90850586 32.43428223 -118.66894531 31.85961914 C-117.03729876 28.95026972 -115.0118139 26.94631978 -112.64697266 24.59277344 C-112.18046295 24.12672195 -111.71395325 23.66067047 -111.23330688 23.18049622 C-110.24546775 22.19567124 -109.25520621 21.21327088 -108.26269531 20.2331543 C-106.76920468 18.75772426 -105.28367765 17.27464729 -103.79931641 15.79003906 C-99.04917211 11.05815249 -94.22761011 6.46393876 -89.13427734 2.09887695 C-86.38356514 -0.32115479 -83.85748213 -2.94412451 -81.31103516 -5.57519531 C-57.87728079 -29.35161306 -26.10977162 -11.22391398 0 0 Z " fill="#FEF900" transform="translate(775.37353515625,654.4501953125)"/>
<path d="M0 0 C4.79484981 3.55056647 9.06008781 7.62992118 13.36328125 11.75 C14.60534789 12.84242006 15.8546919 13.92665757 17.11328125 15 C21.12545958 18.48164235 24.98854474 22.1172868 28.86328125 25.75 C34.58498964 31.11327028 40.30524873 36.46788192 46.40625 41.40234375 C53.30368169 47.10922438 58.80453624 53.70927892 60.36328125 62.75 C60.99332407 69.43990921 60.17260282 75.85298876 59.05078125 82.4375 C58.93323486 83.13794434 58.81568848 83.83838867 58.69458008 84.56005859 C57.92432776 88.74649068 56.78200899 92.56798007 55.22192383 96.52416992 C53.43943323 101.14485993 51.92999848 105.86529326 50.36328125 110.5625 C50.02039063 111.57892578 49.6775 112.59535156 49.32421875 113.64257812 C47.36052209 119.52242556 45.58174606 125.40940917 44.03149414 131.41210938 C43.42726212 133.52614878 42.70505549 135.43760339 41.80078125 137.4375 C40.48670617 140.46558605 39.64188439 143.37957847 38.88671875 146.5859375 C37.50186223 152.3113891 35.86246942 157.84572376 33.36328125 163.1875 C31.44447872 167.31693814 30.2541487 171.46242288 29.171875 175.87890625 C28.3338731 178.85442025 27.25887919 181.69974469 26.16593933 184.58918762 C24.94740848 187.86955894 23.83781414 191.18338286 22.734375 194.50390625 C22.38162254 195.56072853 22.38162254 195.56072853 22.02174377 196.63890076 C21.52946569 198.11506016 21.03793153 199.59146785 20.54711914 201.06811523 C19.80123395 203.31113865 19.05214187 205.55307316 18.30273438 207.79492188 C17.82142216 209.23951924 17.34029604 210.68417862 16.859375 212.12890625 C16.63849716 212.78951553 16.41761932 213.45012482 16.19004822 214.13075256 C14.80415214 218.30920453 13.56932648 222.51679427 12.36328125 226.75 C11.75548088 228.26580982 11.11383383 229.76889084 10.42578125 231.25 C9.19626872 233.90646503 8.08074632 236.50342648 7.05078125 239.25 C4.3274577 244.89837478 0.66291126 249.6924363 -4.01171875 253.875 C-9.78948794 255.80092306 -15.11700519 254.22007553 -20.51171875 251.75 C-40.89207472 240.72765031 -57.25181076 220.24002975 -73.44921875 203.9375 C-77.14067727 200.22222924 -80.83389069 196.50873504 -84.53134727 192.79943275 C-85.98897796 191.33542571 -87.44351541 189.86839611 -88.89790344 188.40116882 C-89.79631454 187.4994545 -90.69472565 186.59774017 -91.62036133 185.66870117 C-92.39833572 184.88548996 -93.17631012 184.10227875 -93.9778595 183.29533386 C-96.10723443 181.25687691 -98.26529108 179.31767842 -100.49307251 177.39067078 C-104.4706434 173.93563263 -108.228348 170.30633772 -111.95141602 166.58056641 C-112.63384369 165.90149734 -113.31627136 165.22242828 -114.01937866 164.52278137 C-116.24991798 162.30165606 -118.47674831 160.07685974 -120.703125 157.8515625 C-122.26668746 156.29121836 -123.83032294 154.73094738 -125.39402771 153.17074585 C-128.66119081 149.90954948 -131.92630175 146.64631415 -135.19018555 143.38183594 C-139.3564767 139.2154431 -143.52961123 135.05597872 -147.70454502 130.89824867 C-150.93289584 127.6810558 -154.15665146 124.45928809 -157.37916374 121.23624802 C-158.91521542 119.70137004 -160.45287416 118.16809849 -161.99221992 116.6365242 C-176.57989361 102.11564354 -176.57989361 102.11564354 -181.47032166 95.24813843 C-182.58262982 93.5974555 -182.58262982 93.5974555 -184.63671875 92.75 C-185.53183671 91.20075737 -186.35565226 89.60975899 -187.13671875 88 C-187.55953125 87.13890625 -187.98234375 86.2778125 -188.41796875 85.390625 C-190.96461813 79.87288468 -192.05645698 76.86579547 -190.63671875 70.75 C-183.68138771 54.90730152 -156.75038945 48.34186604 -142.07421875 42.4375 C-139.92401151 41.56703956 -137.77403205 40.69601625 -135.62426758 39.82446289 C-131.18131733 38.02450349 -126.73682918 36.22842208 -122.29101562 34.43554688 C-115.84533307 31.83573023 -109.40465005 29.22370633 -102.96484375 26.609375 C-92.35477946 22.3038957 -81.7366683 18.01868031 -71.11309814 13.74664307 C-68.79197892 12.81248597 -66.47175941 11.87613512 -64.15185547 10.93896484 C-15.02482189 -8.88863413 -15.02482189 -8.88863413 0 0 Z " fill="#FEF900" transform="translate(376.63671875,640.25)"/>
<path d="M0 0 C1.70421543 0.91445706 3.40865134 1.82850332 5.11328125 2.7421875 C14.88693973 8.00908377 24.57975286 13.42097746 34.25 18.875 C35.17756104 19.39795654 36.10512207 19.92091309 37.06079102 20.4597168 C41.40414008 22.9205167 45.71574513 25.419388 49.984375 28.0078125 C57.02433274 32.25590751 64.28891426 36.08388808 71.53515625 39.96484375 C73.37760417 40.95572917 75.22005208 41.94661458 77.0625 42.9375 C77.97837891 43.42412109 78.89425781 43.91074219 79.83789062 44.41210938 C85.48308037 47.46043194 90.73097001 50.78636863 95.90405273 54.58422852 C98.03682541 56.16170595 98.03682541 56.16170595 101 57 C112.00921683 67.44942614 116.73396174 79.03394207 118.71875 93.7890625 C118.86276245 94.80938568 119.0067749 95.82970886 119.15515137 96.88095093 C119.61136709 100.12791704 120.05577251 103.37637452 120.5 106.625 C120.79742396 108.75010554 121.0955956 110.87510658 121.39453125 113 C122.13400338 118.27843561 122.85761277 123.55886627 123.57217407 128.84072876 C123.85968177 130.96382306 124.14891369 133.08668451 124.43978882 135.20932007 C124.86435309 138.31210172 125.28266607 141.41566502 125.69921875 144.51953125 C125.82619141 145.44251007 125.95316406 146.36548889 126.08398438 147.31643677 C129.21678691 170.96524234 129.21678691 170.96524234 122.81640625 180.125 C120.00897307 183.2691614 116.71110604 185.19820083 112.9375 187 C112.23326904 187.34047363 111.52903809 187.68094727 110.8034668 188.03173828 C102.16758151 192.0480339 93.17240702 194.52555692 84 197 C82.86320801 197.3103418 81.72641602 197.62068359 80.55517578 197.94042969 C74.97830102 199.46265357 69.39940944 200.97693425 63.81542969 202.47290039 C53.49071477 205.23947337 43.17664654 208.04307417 32.87000275 210.87615585 C30.68877283 211.47552664 28.50735556 212.07421035 26.3258667 212.67263794 C25.59872719 212.8721084 24.87158768 213.07157887 24.12241364 213.27709389 C22.64503965 213.68234219 21.16765823 214.08756339 19.69026947 214.4927578 C16.0450857 215.49282298 12.40039789 216.49462819 8.7567749 217.50036621 C-18.18296579 224.93406543 -18.18296579 224.93406543 -31.3828125 228.0078125 C-32.22581406 228.20832718 -33.06881561 228.40884186 -33.93736267 228.61543274 C-42.84040322 230.61772366 -54.24646463 232.4704584 -62.81640625 228.52734375 C-67.06563739 225.70082946 -67.90237683 221.80014252 -69 217 C-69.4122581 213.51966124 -69.45181758 210.09959032 -69.40625 206.59765625 C-69.39847534 205.60435806 -69.39070068 204.61105988 -69.38269043 203.58766174 C-69.14056037 191.40718133 -67.32182577 179.46295279 -65.5 167.4375 C-65.13400823 164.93998464 -64.76945533 162.44225805 -64.40625 159.94433594 C-63.4709204 153.53815562 -62.51648255 147.1349814 -61.55712891 140.73236084 C-60.68228117 134.87151358 -59.82599821 129.0079737 -58.96875 123.14453125 C-57.50294233 113.13774644 -56.01436978 103.13452764 -54.51347351 93.13294983 C-53.46939859 86.16668657 -52.44102177 79.19829541 -51.4236145 72.22808838 C-50.72666622 67.46124672 -50.02270488 62.69545476 -49.31762695 57.92980957 C-48.9881785 55.69285613 -48.6615467 53.45548552 -48.33813477 51.21765137 C-46.72670456 40.08052746 -44.94092993 29.02272146 -42.51171875 18.03125 C-42.32156693 17.15158569 -42.1314151 16.27192139 -41.9355011 15.36560059 C-40.59499423 9.55712199 -38.58648839 4.36270235 -36 -1 C-35.566875 -1.94875 -35.13375 -2.8975 -34.6875 -3.875 C-25.39115218 -15.58151208 -9.91676272 -5.40240014 0 0 Z " fill="#FEF900" transform="translate(212,404)"/>
<path d="M0 0 C0.89539993 -0.00365067 1.79079987 -0.00730133 2.71333313 -0.01106262 C5.65088315 -0.01911851 8.58787288 -0.00559931 11.52539062 0.0090332 C13.57987467 0.00955241 15.63435922 0.00903238 17.68884277 0.00752258 C21.98583433 0.00761208 26.28263741 0.01799655 30.57958984 0.03613281 C36.0738083 0.05881896 41.56775168 0.05936159 47.06200409 0.05261517 C51.30176212 0.04926577 55.541458 0.05592357 59.78120422 0.0657444 C61.80649998 0.06957994 63.83180267 0.07075148 65.85710144 0.06915855 C68.6926275 0.06878563 71.52780745 0.0814714 74.36328125 0.09765625 C75.19156937 0.09517883 76.01985748 0.09270142 76.87324524 0.09014893 C85.47827937 0.16811406 92.45496985 1.790683 99.15291786 7.46644592 C102.25119323 11.02681285 103.28615822 14.05087491 104.45370483 18.55371094 C104.66434173 19.34588485 104.87497863 20.13805876 105.09199846 20.95423794 C107.19186655 29.4676722 107.38750338 37.74638911 107.32861328 46.4699707 C107.33541257 48.19710198 107.34432849 49.92422599 107.35516357 51.65133667 C107.37768933 56.28374872 107.3692329 60.91559541 107.35326815 65.54801559 C107.34046873 70.43225197 107.35238774 75.316445 107.36019897 80.20068359 C107.36925514 88.39762929 107.35741426 96.59434857 107.33349609 104.79125977 C107.30629266 114.22201594 107.3151097 123.65223133 107.34262812 133.08297443 C107.36543391 141.22967002 107.36846361 149.37620432 107.35543478 157.52292156 C107.34770289 162.36686228 107.34642356 167.21055015 107.36311722 172.05447388 C107.37773116 176.61196906 107.36723708 181.16877785 107.33864594 185.7262001 C107.3321243 187.38280227 107.33377624 189.03946385 107.34495926 190.69604111 C107.398636 199.46673514 106.74368709 207.61658268 104.51620483 216.12841797 C104.33090513 216.86699256 104.14560542 217.60556715 103.95469058 218.36652279 C102.36933963 223.81804527 99.97876027 226.66913161 95.68164062 230.37231445 C92.23001362 232.22440699 89.57532281 232.59481058 85.68164062 232.37231445 C85.68164062 233.03231445 85.68164062 233.69231445 85.68164062 234.37231445 C73.63296147 234.51178774 61.5844767 234.61817516 49.53515244 234.68318748 C43.93915898 234.71440198 38.34372082 234.75669375 32.74804688 234.82495117 C27.34040171 234.89049663 21.93328817 234.92609468 16.52527618 234.94157791 C14.4697051 234.95260133 12.41416069 234.97412685 10.35881805 235.00669479 C-11.50688609 235.33915648 -11.50688609 235.33915648 -20.31835938 228.37231445 C-29.92539306 217.83370101 -30.04647973 202.75413408 -29.91772461 189.29882812 C-29.91959393 187.55078789 -29.92364185 185.80274885 -29.92967224 184.05471802 C-29.93955103 179.35856118 -29.91863825 174.66301908 -29.8911922 169.96695113 C-29.86715989 165.02740399 -29.87030561 160.08786484 -29.86988831 155.14826965 C-29.86527784 146.86290228 -29.84175097 138.57776656 -29.80541992 130.29248047 C-29.76362769 120.7368026 -29.74610001 111.18133259 -29.74280018 101.62556857 C-29.7391916 91.40972162 -29.72031408 81.19394846 -29.6956799 70.97813249 C-29.68947558 68.05087838 -29.68582417 65.12362989 -29.6826458 62.19637108 C-29.67671294 57.58739941 -29.66031102 52.97857365 -29.63604164 48.36966324 C-29.62865019 46.68593411 -29.62453287 45.00218668 -29.62406158 43.31844139 C-29.60843114 14.94829857 -29.60843114 14.94829857 -20.56835938 5.49731445 C-13.77260551 1.05393692 -7.93211867 -0.07320042 0 0 Z " fill="#FEF900" transform="translate(501.318359375,702.627685546875)"/>
<path d="M0 0 C8.43097667 10.13338542 10.93778271 24.36878442 13.9453125 36.859375 C14.24143936 38.08874283 14.53756622 39.31811066 14.84266663 40.58473206 C19.41814317 59.70792819 23.6405007 78.91463881 27.9152832 98.10668945 C29.17690377 103.7708275 30.44283538 109.43399162 31.70996666 115.09689903 C36.46088138 136.33614725 41.17835441 157.58100768 45.66015625 178.87890625 C45.82777403 179.67451399 45.99539181 180.47012173 46.16808891 181.28983879 C50.17947926 200.36604144 50.17947926 200.36604144 50.1875 209.4375 C50.19974609 210.16259766 50.21199219 210.88769531 50.22460938 211.63476562 C50.23741905 216.38715605 49.82755617 220.54009228 48 225 C45.8984375 226.55859375 45.8984375 226.55859375 43.375 227.4375 C42.55773437 227.74558594 41.74046875 228.05367187 40.8984375 228.37109375 C33.45558744 229.98605178 26.63775459 228.52280223 19.3503418 226.85473633 C18.34399783 226.62970586 17.33765387 226.40467539 16.30081463 226.17282581 C5.92802793 223.81883538 -4.34190002 221.11022502 -14.60546875 218.32421875 C-16.59048757 217.78960022 -18.5756234 217.25541597 -20.56086731 216.72163391 C-24.68513867 215.61151645 -28.80841886 214.49782007 -32.9309082 213.38110352 C-38.12512546 211.97413783 -43.32111919 210.5738773 -48.51777458 209.17594719 C-70.39415583 203.28992648 -92.2614362 197.3800176 -114 191 C-115.3993856 190.59155853 -115.3993856 190.59155853 -116.82704163 190.17486572 C-118.16538307 189.78001984 -118.16538307 189.78001984 -119.53076172 189.37719727 C-120.31611298 189.14597672 -121.10146423 188.91475616 -121.91061401 188.67652893 C-130.88149426 185.7718191 -138.64885205 180.4847385 -143 172 C-143.94860347 168.94730252 -144.11709922 166.20427277 -144.09765625 163.015625 C-144.09443359 162.08105469 -144.09121094 161.14648438 -144.08789062 160.18359375 C-144.07951172 159.21550781 -144.07113281 158.24742187 -144.0625 157.25 C-144.05798828 156.26644531 -144.05347656 155.28289062 -144.04882812 154.26953125 C-144.03706483 151.84629209 -144.02062684 149.42317727 -144 147 C-143.34 147 -142.68 147 -142 147 C-142.02320313 146.37996094 -142.04640625 145.75992188 -142.0703125 145.12109375 C-142.24566892 136.51610394 -141.73543782 127.39304669 -139.46875 119.04296875 C-138.72911651 115.81939947 -138.62732755 112.54241876 -138.4375 109.25 C-138.39431641 108.55261719 -138.35113281 107.85523438 -138.30664062 107.13671875 C-138.20110404 105.42468078 -138.1001009 103.71236439 -138 102 C-137.34 102 -136.68 102 -136 102 C-136.03480469 101.3915625 -136.06960938 100.783125 -136.10546875 100.15625 C-136.49883308 87.41873841 -134.5504666 73.58303105 -127 63 C-123.63269043 59.52044678 -119.97643229 56.75057673 -116 54 C-114.55947266 52.99646484 -114.55947266 52.99646484 -113.08984375 51.97265625 C-102.22972934 44.74603737 -90.76967095 38.44817911 -79.45214844 31.97607422 C-73.91927499 28.80895416 -68.39716043 25.62324986 -62.875 22.4375 C-61.27845581 21.51819702 -61.27845581 21.51819702 -59.6496582 20.58032227 C-54.20112608 17.43975411 -48.7652201 14.27966658 -43.34765625 11.0859375 C-42.27080566 10.45244385 -41.19395508 9.8189502 -40.08447266 9.16625977 C-38.0543453 7.97039033 -36.0264966 6.77064009 -34.00146484 5.56616211 C-11.24572406 -7.82930156 -11.24572406 -7.82930156 0 0 Z " fill="#FEF900" transform="translate(885,406)"/>
<path d="M0 0 C1.21679637 0.60612744 2.43424117 1.210955 3.65234375 1.81445312 C5.88725564 2.92198715 8.11909003 4.03577044 10.34667969 5.15795898 C13.18515135 6.580384 13.18515135 6.580384 15.96582031 7.60961914 C21.35188049 9.85649739 24.09536318 14.37283712 26.25 19.5625 C26.99038958 23.12297676 27.44053009 26.70343742 27.875 30.3125 C28.11423828 32.20350045 28.35628625 34.09414823 28.6015625 35.984375 C28.70291504 36.81549805 28.80426758 37.64662109 28.90869141 38.50292969 C29.15532368 40.61895382 29.15532368 40.61895382 30.25 42.5625 C30.56648391 45.9031635 30.76128525 49.24467611 30.96875 52.59375 C31.06288062 55.4889801 31.06288062 55.4889801 32.25 57.5625 C32.38117895 60.07625477 32.44023169 62.54770179 32.4375 65.0625 C32.43669434 65.84931152 32.43588867 66.63612305 32.43505859 67.44677734 C32.33457434 77.71784419 31.41722887 87.93561398 30.54101562 98.1640625 C30.24424936 101.6296551 29.95687893 105.09592155 29.671875 108.5625 C29.20500384 114.22977429 28.73054717 119.89636985 28.25 125.5625 C27.59 125.5625 26.93 125.5625 26.25 125.5625 C26.25 131.5025 26.25 137.4425 26.25 143.5625 C25.59 143.5625 24.93 143.5625 24.25 143.5625 C24.22494385 144.15562988 24.1998877 144.74875977 24.17407227 145.35986328 C23.68695264 156.77458929 23.1635262 168.17257753 22.25 179.5625 C21.59 179.5625 20.93 179.5625 20.25 179.5625 C20.25 184.5125 20.25 189.4625 20.25 194.5625 C19.59 194.5625 18.93 194.5625 18.25 194.5625 C18.146875 195.75875 18.04375 196.955 17.9375 198.1875 C17.32672763 203.10858022 15.8022711 207.0102289 12.25 210.5625 C4.1089785 212.10313156 -2.5382933 208.97044172 -9.75 205.5625 C-11.49855234 204.78838843 -13.24839767 204.01718532 -15 203.25 C-16.25066299 202.68897564 -17.50094605 202.12709762 -18.75 201.5625 C-18.75 200.9025 -18.75 200.2425 -18.75 199.5625 C-21.72 198.5725 -24.69 197.5825 -27.75 196.5625 C-27.75 195.9025 -27.75 195.2425 -27.75 194.5625 C-28.61238281 194.30597656 -29.47476563 194.04945313 -30.36328125 193.78515625 C-33.86387168 192.52139062 -36.76023593 190.92890937 -39.9375 189 C-44.18173628 186.43186682 -44.18173628 186.43186682 -48.75 184.5625 C-48.75 183.9025 -48.75 183.2425 -48.75 182.5625 C-49.47687012 182.28543213 -50.20374023 182.00836426 -50.95263672 181.72290039 C-53.59383796 180.62727904 -56.01508313 179.39245801 -58.5078125 177.99609375 C-59.38050781 177.51076172 -60.25320313 177.02542969 -61.15234375 176.52539062 C-62.05082031 176.02201172 -62.94929688 175.51863281 -63.875 175 C-65.66798084 173.99638982 -67.46219935 172.99498669 -69.2578125 171.99609375 C-70.04816895 171.55322021 -70.83852539 171.11034668 -71.65283203 170.65405273 C-73.84369255 169.4437719 -73.84369255 169.4437719 -76.75 168.5625 C-76.75 167.9025 -76.75 167.2425 -76.75 166.5625 C-77.7090625 166.19125 -77.7090625 166.19125 -78.6875 165.8125 C-82.74988351 164.15438428 -86.74724906 162.3589416 -90.75 160.5625 C-90.75 159.9025 -90.75 159.2425 -90.75 158.5625 C-93.06 157.9025 -95.37 157.2425 -97.75 156.5625 C-97.75 155.9025 -97.75 155.2425 -97.75 154.5625 C-98.74 154.19125 -98.74 154.19125 -99.75 153.8125 C-106.08942679 151.17107217 -111.11459072 148.80783156 -115.75 143.5625 C-116.27851563 143.00175781 -116.80703125 142.44101562 -117.3515625 141.86328125 C-120.37506076 138.56036016 -122.51814381 136.19962385 -122.75 131.5625 C-122.853125 130.53125 -122.95625 129.5 -123.0625 128.4375 C-121.85738222 113.49403958 -111.6300997 98.2064629 -104.9765625 85.05200195 C-102.40044905 79.94406235 -99.96841809 74.83808055 -97.75 69.5625 C-94.52840188 62.51008385 -91.14522194 55.53256532 -87.75 48.5625 C-87.35441895 47.74700684 -86.95883789 46.93151367 -86.55126953 46.09130859 C-80.67631376 34.09754993 -73.8522978 22.29816801 -61.75 15.5625 C-60.76 15.5625 -59.77 15.5625 -58.75 15.5625 C-58.75 14.9025 -58.75 14.2425 -58.75 13.5625 C-58.18410156 13.29695313 -57.61820312 13.03140625 -57.03515625 12.7578125 C-56.30167969 12.40460938 -55.56820312 12.05140625 -54.8125 11.6875 C-54.08160156 11.33945313 -53.35070312 10.99140625 -52.59765625 10.6328125 C-50.58667541 9.6940023 -50.58667541 9.6940023 -49.75 7.5625 C-48.50950239 6.80229006 -47.23078877 6.10395151 -45.9375 5.4375 C-40.91823439 2.75147128 -36.30453141 -0.40534481 -31.64453125 -3.66796875 C-20.11696014 -10.71518833 -11.06995442 -5.61261919 0 0 Z " fill="#FEF900" transform="translate(321.75,194.4375)"/>
<path d="M0 0 C2.87109375 0.5234375 2.87109375 0.5234375 4.55859375 1.88671875 C4.99171875 2.52996094 5.42484375 3.17320312 5.87109375 3.8359375 C6.36867188 4.57457031 6.86625 5.31320313 7.37890625 6.07421875 C11.96190109 13.59656892 15.86146687 21.45186115 19.76904297 29.33789062 C22.05802267 33.94401542 24.4304193 38.49606127 26.87109375 43.0234375 C30.72772445 50.18385511 34.371894 57.44082795 37.97802734 64.72998047 C39.64106527 68.06969524 41.34976127 71.38664091 43.05859375 74.703125 C43.87109375 76.5234375 43.87109375 76.5234375 43.87109375 78.5234375 C44.53109375 78.5234375 45.19109375 78.5234375 45.87109375 78.5234375 C46.36609375 79.6990625 46.86109375 80.8746875 47.37109375 82.0859375 C49.32296 86.50552036 51.56280045 90.72188793 53.87109375 94.9609375 C56.549227 99.89295737 58.9192689 104.77586251 60.88085938 110.04443359 C61.86063294 112.49724936 62.9713785 114.81216857 64.171875 117.1640625 C66.81519415 122.39423406 69.35715275 127.66755678 71.87109375 132.9609375 C72.30607178 133.87601074 72.7410498 134.79108398 73.18920898 135.73388672 C83.00600082 156.42695551 83.00600082 156.42695551 83.18359375 161.7734375 C83.22097656 162.50046875 83.25835938 163.2275 83.296875 163.9765625 C82.46411673 168.95783214 79.96485874 172.49963252 76.3671875 175.8671875 C66.88227464 182.55386937 56.84918077 188.12542629 46.67250061 193.68458557 C39.62597661 197.53409393 32.66504026 201.51120422 25.74609375 205.5859375 C13.5540745 212.74463811 1.27230146 219.73299544 -11.12890625 226.5234375 C-11.8957373 226.94334961 -12.66256836 227.36326172 -13.45263672 227.79589844 C-19.89219554 231.28418189 -25.65991601 234.3740577 -33.12890625 234.5234375 C-35.44071743 231.05572073 -35.28834208 229.3500539 -34.7421875 225.31640625 C-33.47219068 219.53266279 -31.21303078 214.05314253 -29.12890625 208.5234375 C-26.96563275 202.34971175 -25.06878811 196.09779321 -23.19140625 189.83203125 C-21.31835117 183.99939283 -19.05942254 178.3252187 -16.78149414 172.64111328 C-15.53897605 169.50899998 -14.33870712 166.36152349 -13.14648438 163.20996094 C-12.44638479 161.36161741 -11.73892733 159.51604948 -11.02539062 157.67285156 C-0.23721211 129.49129715 -4.76143946 111.8021814 -15.31903076 84.62194824 C-16.7028951 81.03614496 -18.04821067 77.435969 -19.39453125 73.8359375 C-19.760056 72.86053009 -19.760056 72.86053009 -20.13296509 71.86541748 C-22.16821386 66.43069372 -24.17807626 60.98898598 -26.12890625 55.5234375 C-26.50273438 54.52570313 -26.8765625 53.52796875 -27.26171875 52.5 C-30.24333428 44.22236807 -31.88212993 37.66172764 -28.15258789 29.3815918 C-26.27792216 25.9787583 -23.72610909 23.20313719 -21.12890625 20.3359375 C-20.5558374 19.69390381 -19.98276855 19.05187012 -19.39233398 18.39038086 C-18.21535499 17.07422601 -17.03493421 15.76114082 -15.85107422 14.45117188 C-14.21509716 12.61991658 -12.62240608 10.75959626 -11.0390625 8.8828125 C-10.09033735 7.78342802 -9.14114394 6.68444739 -8.19140625 5.5859375 C-6.94037109 4.11833984 -6.94037109 4.11833984 -5.6640625 2.62109375 C-3.12890625 0.5234375 -3.12890625 0.5234375 0 0 Z " fill="#FDF801" transform="translate(788.12890625,169.4765625)"/>
<path d="M0 0 C0.33 0 0.66 0 1 0 C1.02334058 20.9399784 1.04098489 41.87995467 1.05181217 62.81994343 C1.05697266 72.54232022 1.06401066 82.26468894 1.07543945 91.98706055 C1.08539382 100.45918333 1.09185523 108.93130027 1.09408849 117.40342873 C1.09539431 121.8910486 1.09847209 126.37865174 1.10573006 130.86626625 C1.11250213 135.08753194 1.11461452 139.30877395 1.11310768 143.53004456 C1.11338347 145.08167843 1.11538157 146.63331306 1.11920547 148.18494225 C1.12416123 150.2990088 1.12299129 152.41298531 1.12025452 154.52705383 C1.12117631 155.71155782 1.1220981 156.8960618 1.12304783 158.11645985 C1 161 1 161 0 164 C-0.66 164 -1.32 164 -2 164 C-1.93019456 163.38336833 -1.86038912 162.76673666 -1.78846836 162.13141918 C-0.94936956 153.98638776 -0.82803606 145.88811316 -0.79467773 137.70629883 C-0.78507737 136.19730372 -0.7750661 134.68831118 -0.76467896 133.17932129 C-0.73785736 129.11606926 -0.71672603 125.05280588 -0.69667697 120.98951554 C-0.67467554 116.73075736 -0.64735671 112.47203323 -0.62062073 108.21330261 C-0.57088388 100.16363829 -0.52587526 92.11395487 -0.48259836 84.06425351 C-0.4330626 74.89365463 -0.37820553 65.72308994 -0.32291877 56.55252421 C-0.20939087 37.70171462 -0.10248929 18.85087268 0 0 Z " fill="#F7F42E" transform="translate(607,748)"/>
<path d="M0 0 C0.33 0 0.66 0 1 0 C0.51621109 7.91886056 -0.13938568 15.80146265 -1 23.6875 C-1.0829834 24.46528809 -1.1659668 25.24307617 -1.25146484 26.04443359 C-1.60233495 29.17469123 -2.0008029 32.00240871 -3 35 C-3.30486441 38.12486016 -3.50841216 41.25028111 -3.71875 44.3828125 C-4 47 -4 47 -5 48 C-5.29509061 49.40950688 -5.53705963 50.83026105 -5.75390625 52.25390625 C-5.95209961 53.53491211 -5.95209961 53.53491211 -6.15429688 54.84179688 C-6.28900391 55.73962891 -6.42371094 56.63746094 -6.5625 57.5625 C-6.77036133 58.91504883 -6.77036133 58.91504883 -6.98242188 60.29492188 C-7.32528051 62.52941433 -7.66430023 64.7644227 -8 67 C-8.33 67 -8.66 67 -9 67 C-8.4343063 58.2316074 -7.47619547 49.60250986 -6.15234375 40.91796875 C-5.88811363 39.14768059 -5.88811363 39.14768059 -5.61854553 37.34162903 C-5.06250036 33.62292559 -4.50011714 29.9052142 -3.9375 26.1875 C-3.55621855 23.64524556 -3.1753554 21.10292834 -2.79492188 18.56054688 C-1.86810948 12.37296493 -0.93611094 6.18618164 0 0 Z " fill="#F2ED28" transform="translate(165,447)"/>
<path d="M0 0 C0.495 1.485 0.495 1.485 1 3 C0.4652002 3.52956299 -0.06959961 4.05912598 -0.62060547 4.60473633 C-3.04135334 7.00470186 -5.45821171 9.40854746 -7.875 11.8125 C-8.71675781 12.64587891 -9.55851563 13.47925781 -10.42578125 14.33789062 C-11.23144531 15.14033203 -12.03710938 15.94277344 -12.8671875 16.76953125 C-13.61081543 17.50792236 -14.35444336 18.24631348 -15.12060547 19.00708008 C-17.15903386 21.05731305 -17.15903386 21.05731305 -19 24 C-19.66 24 -20.32 24 -21 24 C-21 24.66 -21 25.32 -21 26 C-22.57421875 27.55078125 -22.57421875 27.55078125 -24.6875 29.3125 C-27.95300964 32.08499308 -31.01915985 34.92600859 -34 38 C-34.66 37.67 -35.32 37.34 -36 37 C-12 13 -12 13 -9.27807617 10.31713867 C-6.91616763 8.00402666 -6.91616763 8.00402666 -4.8125 5.1875 C-4.214375 4.465625 -3.61625 3.74375 -3 3 C-2.34 3 -1.68 3 -1 3 C-0.67 2.01 -0.34 1.02 0 0 Z " fill="#181300" transform="translate(779,845)"/>
<path d="M0 0 C1.19496094 0.72123047 1.19496094 0.72123047 2.4140625 1.45703125 C6.84995759 3.36572249 10.6012911 3.55426251 15.375 3.6875 C16.62216797 3.73874023 16.62216797 3.73874023 17.89453125 3.79101562 C19.92923351 3.87287146 21.96459208 3.93812701 24 4 C21.74099507 6.25900493 21.05816925 6.34458029 18 6.6875 C17.29875 6.77386719 16.5975 6.86023438 15.875 6.94921875 C14 7 14 7 12 6 C11.67 6.66 11.34 7.32 11 8 C6.4926374 7.46972205 3.5460927 5.80388725 0 3 C0 2.01 0 1.02 0 0 Z " fill="#312A05" transform="translate(147,630)"/>
<path d="M0 0 C0.33 0 0.66 0 1 0 C1.82149558 5.04069691 2.18263631 9.95076249 2.1875 15.0625 C2.19974609 15.74376953 2.21199219 16.42503906 2.22460938 17.12695312 C2.24067181 22.70061807 1.65634223 27.14879398 -2.125 31.375 C-3.053125 32.179375 -3.053125 32.179375 -4 33 C-4 31.35 -4 29.7 -4 28 C-2.68 27.67 -1.36 27.34 0 27 C0 18.09 0 9.18 0 0 Z " fill="#F2ED20" transform="translate(337,552)"/>
<path d="M0 0 C0.66 0 1.32 0 2 0 C0.39662149 4.9194568 -1.29121029 9.78620453 -3.125 14.625 C-4.6631092 18.79902918 -5.60678006 22.57627567 -6 27 C-8 25 -8 25 -8.0625 22.5 C-8.041875 21.675 -8.02125 20.85 -8 20 C-8.33 19.34 -8.66 18.68 -9 18 C-8.34 18 -7.68 18 -7 18 C-6.87625 17.278125 -6.7525 16.55625 -6.625 15.8125 C-6.0095069 13.04278106 -5.11555626 10.6029646 -4 8 C-3.34 8 -2.68 8 -2 8 C-2.061875 6.8553125 -2.061875 6.8553125 -2.125 5.6875 C-2 3 -2 3 0 0 Z " fill="#2A2500" transform="translate(205,299)"/>
<path d="M0 0 C0.33 0 0.66 0 1 0 C1.33 8.58 1.66 17.16 2 26 C0.68 25.34 -0.64 24.68 -2 24 C-1.86184471 20.18718055 -1.71319438 16.37484283 -1.5625 12.5625 C-1.52318359 11.47388672 -1.48386719 10.38527344 -1.44335938 9.26367188 C-1.40146484 8.22919922 -1.35957031 7.19472656 -1.31640625 6.12890625 C-1.27974854 5.17056885 -1.24309082 4.21223145 -1.20532227 3.22485352 C-1 1 -1 1 0 0 Z " fill="#373200" transform="translate(142,598)"/>
<path d="M0 0 C0.66 0 1.32 0 2 0 C2.18451025 16.70842825 2.18451025 16.70842825 1 25 C0.01 25 -0.98 25 -2 25 C-1.505 23.515 -1.505 23.515 -1 22 C-0.85222064 20.30132812 -0.75252934 18.59822511 -0.68359375 16.89453125 C-0.62075195 15.42016602 -0.62075195 15.42016602 -0.55664062 13.91601562 C-0.51732422 12.89185547 -0.47800781 11.86769531 -0.4375 10.8125 C-0.39431641 9.77673828 -0.35113281 8.74097656 -0.30664062 7.67382812 C-0.20055634 5.1160181 -0.09849854 2.55811155 0 0 Z " fill="#FCF61B" transform="translate(351,271)"/>
<path d="M0 0 C0.33 0 0.66 0 1 0 C0.45520982 8.75965262 -0.54107999 17.34562983 -2 26 C-2.33 26 -2.66 26 -3 26 C-3.22185844 23.73044814 -3.42705515 21.45926245 -3.625 19.1875 C-3.74101562 17.92292969 -3.85703125 16.65835938 -3.9765625 15.35546875 C-4 12 -4 12 -2 9 C-1.58483202 6.98341096 -1.58483202 6.98341096 -1.4375 4.875 C-1 1 -1 1 0 0 Z " fill="#302900" transform="translate(149,549)"/>
<path d="M0 0 C0.99 0 1.98 0 3 0 C2.39214597 8.73390265 1.31858334 17.3459967 0 26 C-0.33 26 -0.66 26 -1 26 C-2.70245998 18.26154557 -0.88708057 11.59096818 1 4 C0.34 3.67 -0.32 3.34 -1 3 C-0.34 3 0.32 3 1 3 C0.67 2.01 0.34 1.02 0 0 Z " fill="#3A3500" transform="translate(163,441)"/>
<path d="M0 0 C0.66 0 1.32 0 2 0 C1.67 5.94 1.34 11.88 1 18 C0.34 18 -0.32 18 -1 18 C-1 20.64 -1 23.28 -1 26 C-1.33 26 -1.66 26 -2 26 C-2 20.72 -2 15.44 -2 10 C-1.34 10 -0.68 10 0 10 C0 6.7 0 3.4 0 0 Z " fill="#DBD61C" transform="translate(343,356)"/>
<path d="M0 0 C1.30062431 3.81516464 0.89369853 7.27561763 0.5625 11.25 C0.46066406 12.51328125 0.35882813 13.7765625 0.25390625 15.078125 C0.17011719 16.04234375 0.08632813 17.0065625 0 18 C-0.66 18 -1.32 18 -2 18 C-2 21.3 -2 24.6 -2 28 C-2.33 28 -2.66 28 -3 28 C-3.02684312 25.18743719 -3.04676188 22.37512759 -3.0625 19.5625 C-3.07087891 18.76005859 -3.07925781 17.95761719 -3.08789062 17.13085938 C-3.0965143 15.08704779 -3.0522815 13.04316098 -3 11 C-2.67 10.67 -2.34 10.34 -2 10 C-1.79300437 8.50503158 -1.63320741 7.0033408 -1.5 5.5 C-1.11111111 1.11111111 -1.11111111 1.11111111 0 0 Z " fill="#DFD81F" transform="translate(350,302)"/>
<path d="M0 0 C0 3.92709135 -1.27900462 4.8189713 -3.875 7.6875 C-4.59429688 8.49574219 -5.31359375 9.30398438 -6.0546875 10.13671875 C-8 12 -8 12 -10 12 C-10 12.99 -10 13.98 -10 15 C-10.99 15.66 -11.98 16.32 -13 17 C-13.99 16.67 -14.98 16.34 -16 16 C-10.72 10.72 -5.44 5.44 0 0 Z " fill="#170F00" transform="translate(808,816)"/>
<path d="M0 0 C0.33 0 0.66 0 1 0 C1.02685412 2.31243792 1.04632841 4.6249627 1.0625 6.9375 C1.07410156 8.22527344 1.08570313 9.51304687 1.09765625 10.83984375 C1 14 1 14 0 15 C-0.23075082 16.34747084 -0.41153063 17.70377565 -0.5625 19.0625 C-0.706875 20.361875 -0.85125 21.66125 -1 23 C-1.66 23 -2.32 23 -3 23 C-2.22095672 7.25512528 -2.22095672 7.25512528 0 0 Z " fill="#DAD31D" transform="translate(746,523)"/>
<path d="M0 0 C2.29528198 3.44292297 2.7692482 6.07983112 3.5625 10.125 C4.07051377 14.38741319 4.07051377 14.38741319 6 18 C6.14115161 20.67058851 6.04247107 23.32432238 6 26 C6.66 26 7.32 26 8 26 C7.67 26.66 7.34 27.32 7 28 C5 27 5 27 3.9765625 24.4765625 C2.85040342 20.46743618 2.0728616 16.47671713 1.375 12.375 C1.2409375 11.62476563 1.106875 10.87453125 0.96875 10.1015625 C0.37150206 6.66433966 0 3.49954384 0 0 Z " fill="#E4DD20" transform="translate(655,741)"/>
<path d="M0 0 C0.33 0.66 0.66 1.32 1 2 C-2.40236686 6.16234571 -5.75406466 9.67210473 -10 13 C-11.76323505 15.12603185 -11.76323505 15.12603185 -13 17 C-13.99 16.67 -14.98 16.34 -16 16 C-10.72 10.72 -5.44 5.44 0 0 Z " fill="#E1DC16" transform="translate(675,667)"/>
<path d="M0 0 C0.66 0 1.32 0 2 0 C2.79953138 3.28696233 3.09658936 4.71023192 2 8 C2.66 8 3.32 8 4 8 C4.33 10.64 4.66 13.28 5 16 C5.99 16 6.98 16 8 16 C7.67 16.66 7.34 17.32 7 18 C6.34 18 5.68 18 5 18 C4.67 19.32 4.34 20.64 4 22 C3.32810344 19.08444885 2.66230692 16.16773049 2 13.25 C1.80921875 12.425 1.6184375 11.6 1.421875 10.75 C1.24140625 9.95078125 1.0609375 9.1515625 0.875 8.328125 C0.70742188 7.5949707 0.53984375 6.86181641 0.3671875 6.10644531 C0 4 0 4 0 0 Z " fill="#403A00" transform="translate(919,532)"/>
<path d="M0 0 C0.33 1.65 0.66 3.3 1 5 C1.99 4.67 2.98 4.34 4 4 C4 4.99 4 5.98 4 7 C3.45472656 6.80664062 2.90945312 6.61328125 2.34765625 6.4140625 C-3.0438052 4.55239547 -8.40921726 3.12344334 -14 2 C-14 1.67 -14 1.34 -14 1 C-4.58997722 -0.14806378 -4.58997722 -0.14806378 0 0 Z " fill="#2F2802" transform="translate(203,394)"/>
<path d="M0 0 C1.5625 1.5625 1.5625 1.5625 3 4 C2.6875 7.75 2.6875 7.75 2 11 C2.66 11 3.32 11 4 11 C4 15.95 4 20.9 4 26 C3.67 26 3.34 26 3 26 C2.49559207 22.41727273 1.99724229 18.83372823 1.5 15.25 C1.35691406 14.23421875 1.21382813 13.2184375 1.06640625 12.171875 C0.93105469 11.1921875 0.79570312 10.2125 0.65625 9.203125 C0.53056641 8.30239258 0.40488281 7.40166016 0.27539062 6.47363281 C0 4 0 4 0 0 Z " fill="#4C4602" transform="translate(329,488)"/>
<path d="M0 0 C0.33 0.99 0.66 1.98 1 3 C-3.62 7.62 -8.24 12.24 -13 17 C-13.66 16.67 -14.32 16.34 -15 16 C-12.84649851 13.10105569 -10.67752906 10.6348825 -7.875 8.375 C-4.88146585 6.13441618 -4.88146585 6.13441618 -3 3 C-2.34 3 -1.68 3 -1 3 C-0.67 2.01 -0.34 1.02 0 0 Z " fill="#292401" transform="translate(779,845)"/>
<path d="M0 0 C0.33 0.99 0.66 1.98 1 3 C0.43410156 3.12117187 -0.13179687 3.24234375 -0.71484375 3.3671875 C-1.81505859 3.61855469 -1.81505859 3.61855469 -2.9375 3.875 C-3.66839844 4.03742187 -4.39929688 4.19984375 -5.15234375 4.3671875 C-7.20700294 4.82961523 -7.20700294 4.82961523 -8 7 C-8.66 6.67 -9.32 6.34 -10 6 C-12.65756465 5.56774551 -15.32332885 5.30220481 -18 5 C-18 4.67 -18 4.34 -18 4 C-17.18015625 3.87882813 -16.3603125 3.75765625 -15.515625 3.6328125 C-14.43796875 3.46523438 -13.3603125 3.29765625 -12.25 3.125 C-11.18265625 2.96257813 -10.1153125 2.80015625 -9.015625 2.6328125 C-5.85281055 1.9691131 -3.16013641 0 0 0 Z " fill="#271F04" transform="translate(933,631)"/>
<path d="M0 0 C0.33 0 0.66 0 1 0 C2.35508894 8.58222996 1.23840934 14.97437685 -2 23 C-2.33 23 -2.66 23 -3 23 C-2.06024943 15.32537035 -1.0277503 7.66322553 0 0 Z " fill="#433E03" transform="translate(437,705)"/>
<path d="M0 0 C0.8125 1.6875 0.8125 1.6875 1 4 C-1.53816609 7.03169839 -3.22508911 8.74169637 -7 10 C-7 10.66 -7 11.32 -7 12 C-8.32 12.33 -9.64 12.66 -11 13 C-10.62488281 12.56429687 -10.24976563 12.12859375 -9.86328125 11.6796875 C-6.54140223 7.81392401 -3.25357073 3.92342352 0 0 Z " fill="#1F1700" transform="translate(837,786)"/>
<path d="M0 0 C-0.66 1.65 -1.32 3.3 -2 5 C-6.29 5 -10.58 5 -15 5 C-14.67 4.34 -14.34 3.68 -14 3 C-12.00423852 2.73826079 -10.00708517 2.48224899 -8.00390625 2.28515625 C-5.03980211 1.86336365 -2.94712854 0 0 0 Z " fill="#3D3602" transform="translate(769,400)"/>
<path d="M0 0 C0.33 0.99 0.66 1.98 1 3 C-0.24034412 4.32162881 -1.49268626 5.63200453 -2.75 6.9375 C-3.44609375 7.66839844 -4.1421875 8.39929688 -4.859375 9.15234375 C-7.00599725 11.00517646 -8.23532932 11.60771565 -11 12 C-7.49102731 7.81576108 -3.91939465 3.80411834 0 0 Z " fill="#160E00" transform="translate(820,804)"/>
<path d="M0 0 C0.66 1.32 1.32 2.64 2 4 C1.01 4.33 0.02 4.66 -1 5 C-1.68486725 6.32407669 -2.34870203 7.65909241 -3 9 C-4.875 11.3125 -4.875 11.3125 -7 13 C-9.1328125 12.60546875 -9.1328125 12.60546875 -11 12 C-9.9275 11.319375 -8.855 10.63875 -7.75 9.9375 C-3.81429746 7.15935703 -2.10328772 4.29070694 0 0 Z " fill="#382F01" transform="translate(870,336)"/>
<path d="M0 0 C0.66 0 1.32 0 2 0 C1.34 5.94 0.68 11.88 0 18 C-3.20471801 11.59056398 -2.12957093 6.52181096 0 0 Z " fill="#EFEB22" transform="translate(201,312)"/>
<path d="M0 0 C0.33 0.66 0.66 1.32 1 2 C-1.31 5.3 -3.62 8.6 -6 12 C-7.32 11.67 -8.64 11.34 -10 11 C-6.7 7.37 -3.4 3.74 0 0 Z " fill="#E4DF14" transform="translate(774,182)"/>
<path d="M0 0 C0.33 1.32 0.66 2.64 1 4 C0.01 4.495 0.01 4.495 -1 5 C-1.4021875 6.2065625 -1.4021875 6.2065625 -1.8125 7.4375 C-3 10 -3 10 -5.57421875 11.16015625 C-6.37472656 11.43730469 -7.17523437 11.71445312 -8 12 C-6.85573734 10.186508 -5.70954608 8.37423275 -4.5625 6.5625 C-3.60537109 5.04849609 -3.60537109 5.04849609 -2.62890625 3.50390625 C-1 1 -1 1 0 0 Z " fill="#292301" transform="translate(890,728)"/>
<path d="M0 0 C0.33 0.66 0.66 1.32 1 2 C-0.17467088 5.0468026 -1.76008265 7.62449444 -4 10 C-7.8125 10.5 -7.8125 10.5 -11 10 C-10.278125 9.443125 -9.55625 8.88625 -8.8125 8.3125 C-6.02417676 6.01987867 -3.51572008 3.58560119 -1 1 C-0.67 0.67 -0.34 0.34 0 0 Z " fill="#211D00" transform="translate(336,581)"/>
<path d="M0 0 C3.91377145 3.91377145 4.125 9.69490014 4.125 15 C4.09346189 16.33361135 4.05553449 17.66717225 4 19 C3.67 19 3.34 19 3 19 C2.67 15.04 2.34 11.08 2 7 C1.34 7 0.68 7 0 7 C0 4.69 0 2.38 0 0 Z " fill="#EDE722" transform="translate(345,209)"/>
<path d="M0 0 C0.33 0 0.66 0 1 0 C1.02701408 2.10409639 1.04640223 4.20829178 1.0625 6.3125 C1.07410156 7.48425781 1.08570313 8.65601563 1.09765625 9.86328125 C1 13 1 13 0 16 C-0.66 16 -1.32 16 -2 16 C-1.34 10.72 -0.68 5.44 0 0 Z " fill="#BBB918" transform="translate(607,896)"/>
<path d="M0 0 C0.33 0.66 0.66 1.32 1 2 C-6.29840547 10.44646925 -6.29840547 10.44646925 -10 14 C-10.66 13.67 -11.32 13.34 -12 13 C-11.46890625 12.48050781 -10.9378125 11.96101562 -10.390625 11.42578125 C-6.68949647 7.77192991 -3.12841559 4.17122079 0 0 Z " fill="#292100" transform="translate(876,746)"/>
<path d="M0 0 C0.33 1.32 0.66 2.64 1 4 C0.01 4.66 -0.98 5.32 -2 6 C-3.20450304 8.55183404 -3.20450304 8.55183404 -4 11 C-4.99 11 -5.98 11 -7 11 C-6.21258141 9.53936857 -5.4199095 8.08156827 -4.625 6.625 C-4.18414062 5.81289062 -3.74328125 5.00078125 -3.2890625 4.1640625 C-2 2 -2 2 0 0 Z " fill="#DFD917" transform="translate(246,223)"/>
<path d="M0 0 C1.98 0 3.96 0 6 0 C3.25906335 1.8272911 0.86174676 2.93698178 -2.1875 4.125 C-3.08855469 4.47820313 -3.98960937 4.83140625 -4.91796875 5.1953125 C-5.94857422 5.59363281 -5.94857422 5.59363281 -7 6 C-7.33 5.01 -7.66 4.02 -8 3 C-7 2 -7 2 -3.4375 1.9375 C-2.303125 1.958125 -1.16875 1.97875 0 2 C0 1.34 0 0.68 0 0 Z " fill="#403802" transform="translate(209,691)"/>
<path d="M0 0 C0.66 0 1.32 0 2 0 C1.24964259 3.11799003 0.36636589 6.18070403 -0.5625 9.25 C-0.83191406 10.14203125 -1.10132813 11.0340625 -1.37890625 11.953125 C-1.58386719 12.62859375 -1.78882813 13.3040625 -2 14 C-2.33 14 -2.66 14 -3 14 C-3.34615998 8.34605369 -2.43425238 4.96993194 0 0 Z " fill="#E5DF1B" transform="translate(432,728)"/>
<path d="M0 0 C0.99 0.33 1.98 0.66 3 1 C2.67 4.96 2.34 8.92 2 13 C1.67 13 1.34 13 1 13 C0.67 8.71 0.34 4.42 0 0 Z " fill="#BFBB13" transform="translate(650,717)"/>
<path d="M0 0 C0.33 0 0.66 0 1 0 C1.26252625 4.33168317 0.29243536 7.8803623 -1 12 C-1.99 12 -2.98 12 -4 12 C-3.33501617 7.61110675 -1.81242323 4.0188515 0 0 Z " fill="#D9D316" transform="translate(654,688)"/>
<path d="M0 0 C0.99 0.495 0.99 0.495 2 1 C2 1.66 2 2.32 2 3 C2.66 3 3.32 3 4 3 C3.67 6.3 3.34 9.6 3 13 C1.26315467 9.52630934 0.69915888 7.92380063 0.375 4.25 C0.30023437 3.45078125 0.22546875 2.6515625 0.1484375 1.828125 C0.09945312 1.22484375 0.05046875 0.6215625 0 0 Z " fill="#3F3900" transform="translate(913,505)"/>
<path d="M0 0 C0.66 0 1.32 0 2 0 C-0.89066059 9.59453303 -0.89066059 9.59453303 -4 13 C-4 11.35 -4 9.7 -4 8 C-3.34 8 -2.68 8 -2 8 C-2.04125 7.236875 -2.0825 6.47375 -2.125 5.6875 C-2 3 -2 3 0 0 Z " fill="#3A3300" transform="translate(205,299)"/>
<path d="M0 0 C0.66 0 1.32 0 2 0 C1.835 0.598125 1.67 1.19625 1.5 1.8125 C0.8885876 4.11344336 0.8885876 4.11344336 1 7 C-1 8.6875 -1 8.6875 -3 10 C-2.69201674 8.51988629 -2.378482 7.04092675 -2.0625 5.5625 C-1.88847656 4.73878906 -1.71445312 3.91507813 -1.53515625 3.06640625 C-1 1 -1 1 0 0 Z " fill="#3D3703" transform="translate(419,774)"/>
<path d="M0 0 C2.475 0.495 2.475 0.495 5 1 C5 1.99 5 2.98 5 4 C3.35 4.66 1.7 5.32 0 6 C0 4.02 0 2.04 0 0 Z " fill="#222103" transform="translate(830,418)"/>
<path d="M0 0 C2 1 2 1 2 1 Z M2 2 C1.01 2.33 0.02 2.66 -1 3 C-0.67 3.99 -0.34 4.98 0 6 C-2.91517292 4.92598892 -4.77810176 4.22189824 -7 2 C-3.52176885 0.84058962 -1.54104422 1.29179116 2 2 Z " fill="#201B03" transform="translate(232,409)"/>
<path d="M0 0 C0.66 0 1.32 0 2 0 C1.67 4.29 1.34 8.58 1 13 C0.01 13 -0.98 13 -2 13 C-1.34 8.71 -0.68 4.42 0 0 Z " fill="#E5DE1F" transform="translate(351,283)"/>
<path d="M0 0 C0.66 0 1.32 0 2 0 C2.91297308 4.97063121 2.91297308 9.02936879 2 14 C1.67 14 1.34 14 1 14 C0.04738513 9.23692563 -0.08333357 4.8333472 0 0 Z " fill="#504C02" transform="translate(349,221)"/>
<path d="M0 0 C0.33 0.66 0.66 1.32 1 2 C0.67 2.66 0.34 3.32 0 4 C0.99 4.33 1.98 4.66 3 5 C-2.75 6.125 -2.75 6.125 -5 5 C-5 4.34 -5 3.68 -5 3 C-2.5 1.375 -2.5 1.375 0 0 Z " fill="#1D1A03" transform="translate(727,897)"/>
<path d="M0 0 C0.99 0.99 1.98 1.98 3 3 C-1.62 3.33 -6.24 3.66 -11 4 C-10.67 3.01 -10.34 2.02 -10 1 C-9.36191406 1.01160156 -8.72382813 1.02320313 -8.06640625 1.03515625 C-7.24011719 1.04417969 -6.41382813 1.05320312 -5.5625 1.0625 C-4.32693359 1.07990234 -4.32693359 1.07990234 -3.06640625 1.09765625 C-1.00836062 1.23267348 -1.00836062 1.23267348 0 0 Z " fill="#171209" transform="translate(195,392)"/>
<path d="M0 0 C2.11924028 0.77063283 4.07572958 1.6856587 6.0625 2.75 C6.0625 3.41 6.0625 4.07 6.0625 4.75 C2.2561543 4.07829194 -1.28956816 3.02253436 -4.9375 1.75 C-1.9375 -0.25 -1.9375 -0.25 0 0 Z " fill="#413702" transform="translate(308.9375,186.25)"/>
<path d="M0 0 C2.09782787 2.09782787 2.6509396 3.3799207 3.625 6.125 C4.01558594 7.21167969 4.01558594 7.21167969 4.4140625 8.3203125 C4.70410156 9.15175781 4.70410156 9.15175781 5 10 C3.68 9.67 2.36 9.34 1 9 C0.08941469 5.92677456 -0.08886184 3.19902639 0 0 Z " fill="#3B3200" transform="translate(185,718)"/>
<path d="M0 0 C0.66 1.32 1.32 2.64 2 4 C0.71937515 5.7074998 -0.61767557 7.37373596 -2 9 C-2.66 9 -3.32 9 -4 9 C-2.94124926 5.59687262 -1.99097846 2.98646769 0 0 Z " fill="#E1DB16" transform="translate(236,240)"/>
<path d="M0 0 C4.05606165 0.46800711 7.46588679 0.87953208 11 3 C8.69 3.33 6.38 3.66 4 4 C4 3.34 4 2.68 4 2 C2.68 2 1.36 2 0 2 C0 1.34 0 0.68 0 0 Z " fill="#3B3602" transform="translate(792,603)"/>
<path d="M0 0 C0.99 0.33 1.98 0.66 3 1 C2.67 4.63 2.34 8.26 2 12 C1.67 12 1.34 12 1 12 C0.67 8.04 0.34 4.08 0 0 Z " fill="#403B00" transform="translate(933,595)"/>
<path d="M0 0 C0.33 0.99 0.66 1.98 1 3 C0.67 3.33 0.34 3.66 0 4 C-0.36760731 6.32817964 -0.70241581 8.6618385 -1 11 C-1.99 11 -2.98 11 -4 11 C-3.52269162 9.5410574 -3.04308958 8.08286504 -2.5625 6.625 C-2.29566406 5.81289063 -2.02882813 5.00078125 -1.75390625 4.1640625 C-1 2 -1 2 0 0 Z " fill="#CCC61A" transform="translate(768,353)"/>
<path d="M0 0 C0.66 0 1.32 0 2 0 C0.92289822 4.30840713 -0.03947516 7.63576723 -3 11 C-3.33 10.01 -3.66 9.02 -4 8 C-3.34 8 -2.68 8 -2 8 C-1.7834375 7.13375 -1.7834375 7.13375 -1.5625 6.25 C-1.04166667 4.16666667 -0.52083333 2.08333333 0 0 Z " fill="#E1DC1C" transform="translate(383,874)"/>
<path d="M0 0 C0.33 0 0.66 0 1 0 C0.67 4.29 0.34 8.58 0 13 C-0.33 13 -0.66 13 -1 13 C-2.42857143 4.57142857 -2.42857143 4.57142857 0 0 Z " fill="#454000" transform="translate(149,549)"/>
<path d="M0 0 C2.56616632 3.84924948 2.55097676 6.4349304 3 11 C1.5 10 1.5 10 0 8 C-0.27345479 5.28153765 -0.13491285 2.74322801 0 0 Z " fill="#545005" transform="translate(683,867)"/>
<path d="M0 0 C5.875 3.75 5.875 3.75 7 6 C4.03 5.505 4.03 5.505 1 5 C0.67 3.35 0.34 1.7 0 0 Z " fill="#2B2600" transform="translate(276,818)"/>
<path d="M0 0 C0.33 0 0.66 0 1 0 C1.66 3.96 2.32 7.92 3 12 C2.34 12 1.68 12 1 12 C-0.47075246 7.58774263 -1.36884358 4.51718381 0 0 Z " fill="#403D00" transform="translate(666,793)"/>
<path d="M0 0 C0.33 0 0.66 0 1 0 C3.27678571 8.03571429 3.27678571 8.03571429 2 12 C-0.13586678 8.79619983 -0.23132175 7.98060033 -0.125 4.3125 C-0.10695313 3.50425781 -0.08890625 2.69601562 -0.0703125 1.86328125 C-0.04710937 1.24839844 -0.02390625 0.63351562 0 0 Z " fill="#474103" transform="translate(659,763)"/>
<path d="M0 0 C2.02054804 1.64169528 4.02043058 3.30911778 6 5 C6 5.33 6 5.66 6 6 C4.35 6 2.7 6 1 6 C0.67 4.02 0.34 2.04 0 0 Z " fill="#353101" transform="translate(201,743)"/>
<path d="M0 0 C0.66 0 1.32 0 2 0 C3.625 3.25 3.625 3.25 5 7 C4.34 8.32 3.68 9.64 3 11 C2.01 7.37 1.02 3.74 0 0 Z " fill="#3D3600" transform="translate(602,712)"/>
<path d="M0 0 C0.99 0.33 1.98 0.66 3 1 C-0.465 3.97 -0.465 3.97 -4 7 C-3.04065919 3.16263678 -2.76390737 2.40339772 0 0 Z " fill="#141000" transform="translate(667,672)"/>
<path d="M0 0 C2.97 0.33 5.94 0.66 9 1 C9.33 1.99 9.66 2.98 10 4 C6.7 3.01 3.4 2.02 0 1 C0 0.67 0 0.34 0 0 Z " fill="#433A03" transform="translate(744,642)"/>
<path d="M0 0 C-4.25061356 1.41687119 -6.71851625 0.19320039 -11 -1 C-11 -1.33 -11 -1.66 -11 -2 C-6.17200184 -3.2350693 -4.02892196 -2.96244261 0 0 Z " fill="#4A4203" transform="translate(737,639)"/>
<path d="M0 0 C4.95 0.99 4.95 0.99 10 2 C6 4 6 4 4 4 C4 3.34 4 2.68 4 2 C3.01 2.33 2.02 2.66 1 3 C0.67 2.01 0.34 1.02 0 0 Z " fill="#3D3805" transform="translate(778,599)"/>
<path d="M0 0 C0.33 0.66 0.66 1.32 1 2 C0.34 2 -0.32 2 -1 2 C-1.28875 2.639375 -1.5775 3.27875 -1.875 3.9375 C-3 6 -3 6 -5 7 C-5.66 6.34 -6.32 5.68 -7 5 C-4.69 3.35 -2.38 1.7 0 0 Z " fill="#F1ED0F" transform="translate(772,458)"/>
<path d="M0 0 C1.98 1.65 3.96 3.3 6 5 C3.50907189 6.24546405 2.58919267 5.7767578 0 5 C0 3.35 0 1.7 0 0 Z " fill="#383300" transform="translate(301,842)"/>
<path d="M0 0 C0.99 0.33 1.98 0.66 3 1 C0.75 3.0625 0.75 3.0625 -2 5 C-4.3125 4.75 -4.3125 4.75 -6 4 C-3.1875 1.9375 -3.1875 1.9375 0 0 Z " fill="#EDE70E" transform="translate(293,189)"/>
</svg>
